name Walk9.mot
datacolumns 19
datarows 27
range 2.05500000 2.08100000
endheader

                time	   L_ground_force_vx	   L_ground_force_vy	   L_ground_force_vz	   L_ground_force_px	   L_ground_force_py	   L_ground_force_pz	   R_ground_force_vx	   R_ground_force_vy	   R_ground_force_vz	   R_ground_force_px	   R_ground_force_py	   R_ground_force_pz	   L_ground_torque_x	   L_ground_torque_y	   L_ground_torque_z	   R_ground_torque_x	   R_ground_torque_y	   R_ground_torque_z	
          2.05500000	          3.85647956	         34.07313492	         -1.24429497	          0.00386486	          0.00000000	          0.00163397	         -0.00000000	          0.00000000	          0.00000000	          0.00000000	          0.00000000	          0.00000000	          0.00000000	         -0.07016492	          0.00000000	          0.00000000	         -0.00000000	          0.00000000	
          2.05600000	          4.19839198	         38.58242702	         -1.27620225	         -0.01789369	          0.00000000	         -0.00073001	         -0.00000000	          0.00000000	          0.00000000	          0.00000000	          0.00000000	          0.00000000	          0.00000000	         -0.07875445	          0.00000000	          0.00000000	         -0.00000000	          0.00000000	
          2.05700000	          4.51117154	         43.20488059	         -1.31620164	         -0.03956931	          0.00000000	         -0.00308160	         -0.00000000	          0.00000000	          0.00000000	          0.00000000	          0.00000000	          0.00000000	          0.00000000	         -0.08712406	          0.00000000	          0.00000000	         -0.00000000	          0.00000000	
          2.05800000	          4.79156545	         47.93448991	         -1.36470304	         -0.06109208	          0.00000000	         -0.00541289	         -0.00000000	          0.00000000	          0.00000000	          0.00000000	          0.00000000	          0.00000000	          0.00000000	         -0.09523030	          0.00000000	          0.00000000	         -0.00000000	          0.00000000	
          2.05900000	          5.03627008	         52.76462940	         -1.42209091	         -0.08239399	          0.00000000	         -0.00771626	         -0.00000000	          0.00000000	          0.00000000	          0.00000000	          0.00000000	          0.00000000	          0.00000000	         -0.10302872	          0.00000000	          0.00000000	         -0.00000000	          0.00000000	
          2.06000000	          5.24195851	         57.68807551	         -1.48871568	         -0.10341156	          0.00000000	         -0.00998466	         -0.00000000	          0.00000000	          0.00000000	          0.00000000	          0.00000000	          0.00000000	          0.00000000	         -0.11047432	          0.00000000	          0.00000000	         -0.00000000	          0.00000000	
          2.06100000	          5.40531643	         62.69705977	         -1.56488329	         -0.12408751	          0.00000000	         -0.01221181	         -0.00000000	          0.00000000	          0.00000000	          0.00000000	          0.00000000	          0.00000000	          0.00000000	         -0.11752208	          0.00000000	          0.00000000	         -0.00000000	          0.00000000	
          2.06200000	          5.52307935	         67.78333809	         -1.65084469	         -0.14437084	          0.00000000	         -0.01439219	         -0.00000000	          0.00000000	          0.00000000	          0.00000000	          0.00000000	          0.00000000	          0.00000000	         -0.12412743	          0.00000000	          0.00000000	         -0.00000000	          0.00000000	
          2.06300000	          5.59207102	         72.93827816	         -1.74678541	         -0.16421647	          0.00000000	         -0.01652097	         -0.00000000	          0.00000000	          0.00000000	          0.00000000	          0.00000000	          0.00000000	          0.00000000	         -0.13024669	          0.00000000	          0.00000000	         -0.00000000	          0.00000000	
          2.06400000	          5.60924346	         78.15296810	         -1.85281498	         -0.18358488	          0.00000000	         -0.01859398	         -0.00000000	          0.00000000	          0.00000000	          0.00000000	          0.00000000	          0.00000000	          0.00000000	         -0.13583744	          0.00000000	          0.00000000	         -0.00000000	          0.00000000	
          2.06500000	          5.57171861	         83.41834666	         -1.96895661	         -0.20244179	          0.00000000	         -0.02060763	         -0.00000000	          0.00000000	          0.00000000	          0.00000000	          0.00000000	          0.00000000	          0.00000000	         -0.14085893	          0.00000000	          0.00000000	         -0.00000000	          0.00000000	
          2.06600000	          5.47683195	         88.72535459	         -2.09513737	         -0.22075781	          0.00000000	         -0.02255890	         -0.00000000	          0.00000000	          0.00000000	          0.00000000	          0.00000000	          0.00000000	          0.00000000	         -0.14527245	          0.00000000	          0.00000000	         -0.00000000	          0.00000000	
          2.06700000	          5.32217814	         94.06510270	         -2.23117933	         -0.23850812	          0.00000000	         -0.02444528	         -0.00000000	          0.00000000	          0.00000000	          0.00000000	          0.00000000	          0.00000000	          0.00000000	         -0.14904174	          0.00000000	          0.00000000	         -0.00000000	          0.00000000	
          2.06800000	          5.10565736	         99.42904644	         -2.37679272	         -0.25567218	          0.00000000	         -0.02626474	         -0.00000000	          0.00000000	          0.00000000	          0.00000000	          0.00000000	          0.00000000	          0.00000000	         -0.15213327	          0.00000000	          0.00000000	         -0.00000000	          0.00000000	
          2.06900000	          4.82552039	        104.80915222	         -2.53157203	         -0.27223346	          0.00000000	         -0.02801571	         -0.00000000	          0.00000000	          0.00000000	          0.00000000	          0.00000000	          0.00000000	          0.00000000	         -0.15451662	          0.00000000	          0.00000000	         -0.00000000	          0.00000000	
          2.07000000	          4.48040969	        110.19803908	         -2.69499603	         -0.28817911	          0.00000000	         -0.02969702	         -0.00000000	          0.00000000	          0.00000000	          0.00000000	          0.00000000	          0.00000000	          0.00000000	         -0.15616463	          0.00000000	          0.00000000	         -0.00000000	          0.00000000	
          2.07100000	          4.06939350	        115.58908218	         -2.86643218	         -0.30349976	          0.00000000	         -0.03130792	         -0.00000000	          0.00000000	          0.00000000	          0.00000000	          0.00000000	          0.00000000	          0.00000000	         -0.15705355	          0.00000000	          0.00000000	         -0.00000000	          0.00000000	
          2.07200000	          3.59199050	        120.97647018	         -3.04514519	         -0.31818918	          0.00000000	         -0.03284801	         -0.00000000	          0.00000000	          0.00000000	          0.00000000	          0.00000000	          0.00000000	          0.00000000	         -0.15716293	          0.00000000	          0.00000000	         -0.00000000	          0.00000000	
          2.07300000	          3.04818366	        126.35521620	         -3.23030884	         -0.33224412	          0.00000000	         -0.03431722	         -0.00000000	          0.00000000	          0.00000000	          0.00000000	          0.00000000	          0.00000000	          0.00000000	         -0.15647547	          0.00000000	          0.00000000	         -0.00000000	          0.00000000	
          2.07400000	          2.43842301	        131.72112803	         -3.42101989	         -0.34566403	          0.00000000	         -0.03571583	         -0.00000000	          0.00000000	          0.00000000	          0.00000000	          0.00000000	          0.00000000	          0.00000000	         -0.15497677	          0.00000000	          0.00000000	         -0.00000000	          0.00000000	
          2.07500000	          1.76361865	        137.07074739	         -3.61631293	         -0.35845081	          0.00000000	         -0.03704437	         -0.00000000	          0.00000000	          0.00000000	          0.00000000	          0.00000000	          0.00000000	          0.00000000	         -0.15265525	          0.00000000	          0.00000000	         -0.00000000	          0.00000000	
          2.07600000	          1.02512592	        142.40126895	         -3.81517505	         -0.37060865	          0.00000000	         -0.03830368	         -0.00000000	          0.00000000	          0.00000000	          0.00000000	          0.00000000	          0.00000000	          0.00000000	         -0.14950216	          0.00000000	          0.00000000	         -0.00000000	          0.00000000	
          2.07700000	          0.22472546	        147.71044868	         -4.01655984	         -0.38214379	          0.00000000	         -0.03949480	         -0.00000000	          0.00000000	          0.00000000	          0.00000000	          0.00000000	          0.00000000	          0.00000000	         -0.14551164	          0.00000000	          0.00000000	          0.00000000	          0.00000000	
          2.07800000	         -0.63539967	        152.99650914	         -4.21940044	         -0.39306433	          0.00000000	         -0.04061900	         -0.00000000	          0.00000000	          0.00000000	          0.00000000	          0.00000000	          0.00000000	          0.00000000	         -0.14068095	          0.00000000	          0.00000000	          0.00000000	          0.00000000	
          2.07900000	         -1.55268806	        158.25804700	         -4.42262147	         -0.40338002	          0.00000000	         -0.04167776	         -0.00000000	          0.00000000	          0.00000000	          0.00000000	          0.00000000	          0.00000000	          0.00000000	         -0.13501071	          0.00000000	          0.00000000	          0.00000000	          0.00000000	
          2.08000000	         -2.52422375	        163.49394658	         -4.62515012	         -0.41310213	          0.00000000	         -0.04267267	         -0.00000000	          0.00000000	          0.00000000	          0.00000000	          0.00000000	          0.00000000	          0.00000000	         -0.12850520	          0.00000000	          0.00000000	          0.00000000	          0.00000000	
          2.08100000	         -3.54675946	        168.70330234	         -4.82592608	         -0.42224324	          0.00000000	         -0.04360548	         -0.00000000	          0.00000000	          0.00000000	          0.00000000	          0.00000000	         -0.00000000	          0.00000000	         -0.12117265	          0.00000000	          0.00000000	          0.00000000	          0.00000000	
